<svg width="24" height="25" viewBox="0 0 24 25" fill="none" xmlns="http://www.w3.org/2000/svg">
<path d="M16.0756 2.01318H19.4616C20.8639 2.01318 22.0001 3.15904 22.0001 4.57315V7.98771C22.0001 9.40182 20.8639 10.5477 19.4616 10.5477H16.0756C14.6734 10.5477 13.5371 9.40182 13.5371 7.98771V4.57315C13.5371 3.15904 14.6734 2.01318 16.0756 2.01318" stroke="#79767D" stroke-width="1.5"/>
<path d="M7.92449 1.26318H4.53852V2.76318H7.92449V1.26318ZM11.213 4.57315C11.213 2.75078 9.74691 1.26318 7.92449 1.26318V2.76318C8.90661 2.76318 9.71301 3.56729 9.71301 4.57315H11.213ZM11.213 7.98771V4.57315H9.71301V7.98771H11.213ZM7.92449 11.2977C9.74691 11.2977 11.213 9.81007 11.213 7.98771H9.71301C9.71301 8.99357 8.90661 9.79767 7.92449 9.79767V11.2977ZM4.53852 11.2977H7.92449V9.79767H4.53852V11.2977ZM1.25 7.98771C1.25 9.81007 2.71611 11.2977 4.53852 11.2977V9.79767C3.5564 9.79767 2.75 8.99357 2.75 7.98771H1.25ZM1.25 4.57315V7.98771H2.75V4.57315H1.25ZM4.53852 1.26318C2.71611 1.26318 1.25 2.75078 1.25 4.57315H2.75C2.75 3.56729 3.5564 2.76318 4.53852 2.76318V1.26318ZM7.92449 12.7287H4.53852V14.2287H7.92449V12.7287ZM11.213 16.0387C11.213 14.2163 9.74691 12.7287 7.92449 12.7287V14.2287C8.90661 14.2287 9.71301 15.0328 9.71301 16.0387H11.213ZM11.213 19.4532V16.0387H9.71301V19.4532H11.213ZM7.92449 22.7632C9.74709 22.7632 11.213 21.2744 11.213 19.4532H9.71301C9.71301 20.4583 8.90643 21.2632 7.92449 21.2632V22.7632ZM4.53852 22.7632H7.92449V21.2632H4.53852V22.7632ZM1.25 19.4532C1.25 21.2744 2.71593 22.7632 4.53852 22.7632V21.2632C3.55659 21.2632 2.75 20.4583 2.75 19.4532H1.25ZM1.25 16.0387V19.4532H2.75V16.0387H1.25ZM4.53852 12.7287C2.71611 12.7287 1.25 14.2163 1.25 16.0387H2.75C2.75 15.0328 3.5564 14.2287 4.53852 14.2287V12.7287ZM16.0755 14.2287H19.4615V12.7287H16.0755V14.2287ZM14.287 16.0387C14.287 15.0328 15.0934 14.2287 16.0755 14.2287V12.7287C14.2531 12.7287 12.787 14.2163 12.787 16.0387H14.287ZM14.287 19.4532V16.0387H12.787V19.4532H14.287ZM16.0755 21.2632C15.0936 21.2632 14.287 20.4583 14.287 19.4532H12.787C12.787 21.2744 14.2529 22.7632 16.0755 22.7632V21.2632ZM19.4615 21.2632H16.0755V22.7632H19.4615V21.2632ZM21.25 19.4532C21.25 20.4583 20.4434 21.2632 19.4615 21.2632V22.7632C21.2841 22.7632 22.75 21.2744 22.75 19.4532H21.25ZM21.25 16.0387V19.4532H22.75V16.0387H21.25ZM19.4615 14.2287C20.4436 14.2287 21.25 15.0328 21.25 16.0387H22.75C22.75 14.2163 21.2839 12.7287 19.4615 12.7287V14.2287Z" fill="#79767D"/>
</svg>
