<svg width="22" height="20" viewBox="0 0 22 20" fill="none" xmlns="http://www.w3.org/2000/svg">
<path d="M9.08329 13.9712H2.50777C1.67555 13.9712 1 14.6349 1 15.4525C1 16.269 1.67555 16.9338 2.50777 16.9338H9.08329C9.91551 16.9338 10.5911 16.269 10.5911 15.4525C10.5911 14.6349 9.91551 13.9712 9.08329 13.9712" stroke="#79767D" stroke-width="1.8"/>
<path d="M21.0001 4.39186C21.0001 3.57533 20.3246 2.91162 19.4934 2.91162H12.9179C12.0857 2.91162 11.4102 3.57533 11.4102 4.39186C11.4102 5.20948 12.0857 5.87318 12.9179 5.87318H19.4934C20.3246 5.87318 21.0001 5.20948 21.0001 4.39186" stroke="#79767D" stroke-width="1.8"/>
<path d="M7.87774 4.39174C7.87774 6.25841 6.33886 7.7714 4.43887 7.7714C2.53999 7.7714 1 6.25841 1 4.39174C1 2.52617 2.53999 1.01318 4.43887 1.01318C6.33886 1.01318 7.87774 2.52617 7.87774 4.39174" stroke="#79767D" stroke-width="1.8"/>
<path d="M21.0008 15.4124C21.0008 17.2779 19.4619 18.7909 17.5619 18.7909C15.663 18.7909 14.123 17.2779 14.123 15.4124C14.123 13.5457 15.663 12.0327 17.5619 12.0327C19.4619 12.0327 21.0008 13.5457 21.0008 15.4124" stroke="#79767D" stroke-width="1.8"/>
</svg>
