<svg width="20" height="21" viewBox="0 0 20 21" fill="none" xmlns="http://www.w3.org/2000/svg">
<path d="M9.72933 6.01318C10.7902 6.01318 11.8076 6.43461 12.5578 7.18476C13.3079 7.9349 13.7293 8.95232 13.7293 10.0132C13.7293 11.074 13.3079 12.0915 12.5578 12.8416C11.8076 13.5918 10.7902 14.0132 9.72933 14.0132C8.66847 14.0132 7.65105 13.5918 6.9009 12.8416C6.15076 12.0915 5.72933 11.074 5.72933 10.0132C5.72933 8.95232 6.15076 7.9349 6.9009 7.18476C7.65105 6.43461 8.66847 6.01318 9.72933 6.01318ZM9.72933 8.01318C9.1989 8.01318 8.69019 8.2239 8.31512 8.59897C7.94005 8.97404 7.72933 9.48275 7.72933 10.0132C7.72933 10.5436 7.94005 11.0523 8.31512 11.4274C8.69019 11.8025 9.1989 12.0132 9.72933 12.0132C10.2598 12.0132 10.7685 11.8025 11.1435 11.4274C11.5186 11.0523 11.7293 10.5436 11.7293 10.0132C11.7293 9.48275 11.5186 8.97404 11.1435 8.59897C10.7685 8.2239 10.2598 8.01318 9.72933 8.01318ZM7.72933 20.0132C7.47933 20.0132 7.26933 19.8332 7.22933 19.5932L6.85933 16.9432C6.22933 16.6932 5.68933 16.3532 5.16933 15.9532L2.67933 16.9632C2.45933 17.0432 2.18933 16.9632 2.06933 16.7432L0.0693316 13.2832C-0.0606684 13.0632 -0.000668302 12.7932 0.189332 12.6432L2.29933 10.9832L2.22933 10.0132L2.29933 9.01318L0.189332 7.38318C-0.000668302 7.23318 -0.0606684 6.96318 0.0693316 6.74318L2.06933 3.28318C2.18933 3.06318 2.45933 2.97318 2.67933 3.06318L5.16933 4.06318C5.68933 3.67318 6.22933 3.33318 6.85933 3.08318L7.22933 0.433184C7.26933 0.193184 7.47933 0.0131836 7.72933 0.0131836H11.7293C11.9793 0.0131836 12.1893 0.193184 12.2293 0.433184L12.5993 3.08318C13.2293 3.33318 13.7693 3.67318 14.2893 4.06318L16.7793 3.06318C16.9993 2.97318 17.2693 3.06318 17.3893 3.28318L19.3893 6.74318C19.5193 6.96318 19.4593 7.23318 19.2693 7.38318L17.1593 9.01318L17.2293 10.0132L17.1593 11.0132L19.2693 12.6432C19.4593 12.7932 19.5193 13.0632 19.3893 13.2832L17.3893 16.7432C17.2693 16.9632 16.9993 17.0532 16.7793 16.9632L14.2893 15.9632C13.7693 16.3532 13.2293 16.6932 12.5993 16.9432L12.2293 19.5932C12.1893 19.8332 11.9793 20.0132 11.7293 20.0132H7.72933ZM8.97933 2.01318L8.60933 4.62318C7.40933 4.87318 6.34933 5.51318 5.57933 6.40318L3.16933 5.36318L2.41933 6.66318L4.52933 8.21318C4.12933 9.38318 4.12933 10.6532 4.52933 11.8132L2.40933 13.3732L3.15933 14.6732L5.58933 13.6332C6.35933 14.5132 7.40933 15.1532 8.59933 15.3932L8.96933 18.0132H10.4893L10.8593 15.4032C12.0493 15.1532 13.0993 14.5132 13.8693 13.6332L16.2993 14.6732L17.0493 13.3732L14.9293 11.8232C15.3293 10.6532 15.3293 9.38318 14.9293 8.21318L17.0393 6.66318L16.2893 5.36318L13.8793 6.40318C13.1093 5.51318 12.0493 4.87318 10.8493 4.63318L10.4793 2.01318H8.97933Z" fill="white"/>
</svg>
