<svg width="24" height="25" viewBox="0 0 24 25" fill="none" xmlns="http://www.w3.org/2000/svg">
<circle cx="12" cy="12.0132" r="1" stroke="#79767D" stroke-width="2"/>
<path d="M18.2265 11.3937C18.3552 11.6471 18.4195 11.7739 18.4195 12.0132C18.4195 12.2525 18.3552 12.3792 18.2265 12.6326C17.6001 13.8665 15.812 16.5132 12 16.5132C8.18799 16.5132 6.39992 13.8665 5.77348 12.6326C5.64481 12.3792 5.58048 12.2525 5.58048 12.0132C5.58048 11.7739 5.64481 11.6471 5.77348 11.3937C6.39992 10.1599 8.18799 7.51318 12 7.51318C15.812 7.51318 17.6001 10.1599 18.2265 11.3937Z" stroke="#79767D" stroke-width="2"/>
<path d="M17 4.01318H17.2C18.9913 4.01318 19.887 4.01318 20.4435 4.56968C21 5.12618 21 6.02185 21 7.81318V8.01318M17 20.0132H17.2C18.9913 20.0132 19.887 20.0132 20.4435 19.4567C21 18.9002 21 18.0045 21 16.2132V16.0132M7 4.01318H6.8C5.00866 4.01318 4.11299 4.01318 3.5565 4.56968C3 5.12618 3 6.02185 3 7.81318V8.01318M7 20.0132H6.8C5.00866 20.0132 4.11299 20.0132 3.5565 19.4567C3 18.9002 3 18.0045 3 16.2132V16.0132" stroke="#79767D" stroke-width="2" stroke-linecap="round"/>
</svg>
