<svg width="20" height="19" viewBox="0 0 20 19" fill="none" xmlns="http://www.w3.org/2000/svg">
<path d="M15 1.01318H15.2C16.9913 1.01318 17.887 1.01318 18.4435 1.56968C19 2.12618 19 3.02185 19 4.81318V5.01318M15 17.0132H15.2C16.9913 17.0132 17.887 17.0132 18.4435 16.4567C19 15.9002 19 15.0045 19 13.2132V13.0132M5 1.01318H4.8C3.00866 1.01318 2.11299 1.01318 1.5565 1.56968C1 2.12618 1 3.02185 1 4.81318V5.01318M5 17.0132H4.8C3.00866 17.0132 2.11299 17.0132 1.5565 16.4567C1 15.9002 1 15.0045 1 13.2132V13.0132" stroke="#79767D" stroke-width="2" stroke-linecap="round"/>
</svg>
