<svg width="26" height="27" viewBox="0 0 26 27" fill="none" xmlns="http://www.w3.org/2000/svg">
<circle cx="13" cy="13.5" r="12.5" fill="white" stroke="#B8B8D3"/>
<path d="M16.0193 12.5502L13.9498 10.4807M8 18.5L9.75098 18.3054C9.96491 18.2817 10.0719 18.2698 10.1718 18.2374C10.2605 18.2087 10.345 18.1681 10.4228 18.1168C10.5105 18.059 10.5866 17.9829 10.7388 17.8307L17.5714 10.9981C18.1429 10.4266 18.1429 9.50008 17.5714 8.92861C16.9999 8.35713 16.0734 8.35713 15.5019 8.9286L8.66934 15.7612C8.51714 15.9134 8.44104 15.9895 8.38318 16.0772C8.33186 16.155 8.29129 16.2394 8.26257 16.3282C8.23021 16.4281 8.21832 16.5351 8.19455 16.749L8 18.5Z" stroke="#5B1D78" stroke-linecap="round" stroke-linejoin="round"/>
</svg>
