<svg width="12" height="12" viewBox="0 0 12 12" fill="none" xmlns="http://www.w3.org/2000/svg">
<path d="M9.01928 5.05022L6.94979 2.98072M1 11L2.75098 10.8054C2.96491 10.7817 3.07187 10.7698 3.17185 10.7374C3.26055 10.7087 3.34496 10.6681 3.42279 10.6168C3.51052 10.559 3.58662 10.4829 3.73883 10.3307L10.5714 3.4981C11.1429 2.92662 11.1429 2.00008 10.5714 1.42861C9.99992 0.857132 9.07338 0.857131 8.50191 1.4286L1.66934 8.26117C1.51714 8.41337 1.44104 8.48947 1.38318 8.5772C1.33186 8.65504 1.29129 8.73945 1.26257 8.82815C1.23021 8.92813 1.21832 9.03509 1.19455 9.24902L1 11Z" stroke="#5B1D78" stroke-linecap="round" stroke-linejoin="round"/>
</svg>
