<svg width="15" height="16" viewBox="0 0 15 16" fill="none" xmlns="http://www.w3.org/2000/svg">
<path fill-rule="evenodd" clip-rule="evenodd" d="M4.125 0C4.53921 0 4.875 0.341116 4.875 0.761905V1.52381H10.125V0.761905C10.125 0.341116 10.4608 0 10.875 0C11.2892 0 11.625 0.341116 11.625 0.761905V1.54262C13.52 1.73375 15 3.35796 15 5.33333V12.1905C15 14.2944 13.3211 16 11.25 16H3.75C1.67893 16 0 14.2944 0 12.1905V5.33333C0 3.35796 1.48 1.73375 3.375 1.54262V0.761905C3.375 0.341116 3.71079 0 4.125 0ZM1.62803 4.57143H13.372C13.0631 3.68366 12.2297 3.04762 11.25 3.04762H3.75C2.77034 3.04762 1.93691 3.68366 1.62803 4.57143ZM13.5 6.09524H1.5V12.1905C1.5 13.4528 2.50736 14.4762 3.75 14.4762H11.25C12.4926 14.4762 13.5 13.4528 13.5 12.1905V6.09524ZM3 8C3 7.57921 3.33579 7.2381 3.75 7.2381H11.25C11.6642 7.2381 12 7.57921 12 8C12 8.42079 11.6642 8.76191 11.25 8.76191H3.75C3.33579 8.76191 3 8.42079 3 8ZM3 10.2857C3 9.86493 3.33579 9.52381 3.75 9.52381H11.25C11.6642 9.52381 12 9.86493 12 10.2857C12 10.7065 11.6642 11.0476 11.25 11.0476H3.75C3.33579 11.0476 3 10.7065 3 10.2857ZM3 12.5714C3 12.1506 3.33579 11.8095 3.75 11.8095H11.25C11.6642 11.8095 12 12.1506 12 12.5714C12 12.9922 11.6642 13.3333 11.25 13.3333H3.75C3.33579 13.3333 3 12.9922 3 12.5714Z" fill="#171766"/>
</svg>
