<svg width="22" height="16" viewBox="0 0 22 16" fill="none" xmlns="http://www.w3.org/2000/svg">
<path d="M10.9488 10.54C7.49884 10.54 4.58789 11.1038 4.58789 13.2795C4.58789 15.4562 7.51765 16.0001 10.9488 16.0001C14.3988 16.0001 17.3098 15.4364 17.3098 13.2606C17.3098 11.084 14.38 10.54 10.9488 10.54" fill="#79767D"/>
<path opacity="0.4" d="M10.9495 8.46703C13.2856 8.46703 15.1588 6.58307 15.1588 4.23351C15.1588 1.88306 13.2856 0 10.9495 0C8.61342 0 6.74023 1.88306 6.74023 4.23351C6.74023 6.58307 8.61342 8.46703 10.9495 8.46703" fill="#79767D"/>
<path opacity="0.4" d="M20.0886 5.21923C20.693 2.84176 18.9209 0.706543 16.6645 0.706543C16.4192 0.706543 16.1846 0.73356 15.9554 0.779488C15.9249 0.786692 15.8909 0.802002 15.873 0.829019C15.8524 0.86324 15.8676 0.909168 15.89 0.938886C16.5678 1.89528 16.9573 3.0597 16.9573 4.30967C16.9573 5.50741 16.6001 6.6241 15.9733 7.55077C15.9088 7.64623 15.9661 7.77501 16.0798 7.79482C16.2374 7.82274 16.3986 7.83715 16.5634 7.84165C18.2064 7.88488 19.6811 6.82132 20.0886 5.21923" fill="#79767D"/>
<path d="M21.8094 10.817C21.5086 10.1722 20.7824 9.72999 19.6783 9.51295C19.1572 9.38507 17.747 9.20496 16.4352 9.22928C16.4155 9.23198 16.4048 9.24549 16.403 9.25449C16.4003 9.2671 16.4057 9.28871 16.4316 9.30222C17.0378 9.60391 19.3811 10.916 19.0865 13.6834C19.074 13.8032 19.1698 13.9068 19.2888 13.8888C19.8655 13.8059 21.3492 13.4853 21.8094 12.4866C22.0637 11.9589 22.0637 11.3456 21.8094 10.817" fill="#79767D"/>
<path opacity="0.4" d="M6.04508 0.779732C5.81675 0.732903 5.58126 0.706787 5.33592 0.706787C3.0795 0.706787 1.3075 2.84201 1.91279 5.21947C2.31931 6.82156 3.79403 7.88512 5.4371 7.84189C5.60185 7.83739 5.76392 7.82208 5.92061 7.79506C6.03433 7.77525 6.09164 7.64647 6.02717 7.55101C5.40039 6.62344 5.04312 5.50765 5.04312 4.30991C5.04312 3.05904 5.43352 1.89462 6.11134 0.939131C6.13283 0.909412 6.14894 0.863484 6.12745 0.829263C6.10954 0.801346 6.07641 0.786937 6.04508 0.779732" fill="#79767D"/>
<path d="M2.32156 9.5127C1.21752 9.72973 0.492248 10.1719 0.191392 10.8167C-0.0637974 11.3453 -0.0637974 11.9586 0.191392 12.4872C0.651629 13.4851 2.13531 13.8066 2.71195 13.8885C2.83104 13.9065 2.92595 13.8038 2.91342 13.6832C2.61883 10.9167 4.9621 9.60456 5.56918 9.30287C5.59425 9.28846 5.59962 9.26775 5.59694 9.25424C5.59515 9.24523 5.5853 9.23173 5.5656 9.22992C4.25294 9.20471 2.84358 9.38482 2.32156 9.5127" fill="#79767D"/>
</svg>
