<svg width="95" height="23" viewBox="0 0 95 23" fill="none" xmlns="http://www.w3.org/2000/svg">
<path d="M5.00635 18H0.131348L6.75635 0.499999H11.7563L18.3813 18H13.5063L12.3813 14.875H6.13135L5.00635 18ZM7.25635 11.625H11.2563L9.25635 5.75L7.25635 11.625ZM31.1304 17.75C28.0137 18.0833 25.2637 18.25 22.8804 18.25C21.747 18.25 20.8387 17.9083 20.1554 17.225C19.472 16.5417 19.1304 15.6333 19.1304 14.5V8.75C19.1304 7.5 19.4804 6.525 20.1804 5.825C20.897 5.10833 21.8804 4.75 23.1304 4.75H31.1304V8.125H24.5054C23.8387 8.125 23.5054 8.45833 23.5054 9.125V14C23.5054 14.25 23.5887 14.4583 23.7554 14.625C23.922 14.7917 24.1304 14.875 24.3804 14.875C25.8804 14.875 28.1304 14.75 31.1304 14.5V17.75ZM44.8755 17.75C41.7588 18.0833 39.0088 18.25 36.6255 18.25C35.4922 18.25 34.5838 17.9083 33.9005 17.225C33.2172 16.5417 32.8755 15.6333 32.8755 14.5V8.75C32.8755 7.5 33.2255 6.525 33.9255 5.825C34.6422 5.10833 35.6255 4.75 36.8755 4.75H44.8755V8.125H38.2505C37.5838 8.125 37.2505 8.45833 37.2505 9.125V14C37.2505 14.25 37.3338 14.4583 37.5005 14.625C37.6672 14.7917 37.8755 14.875 38.1255 14.875C39.6255 14.875 41.8755 14.75 44.8755 14.5V17.75Z" fill="url(#paint0_linear_157_466)"/>
<path d="M5.00635 18H0.131348L6.75635 0.499999H11.7563L18.3813 18H13.5063L12.3813 14.875H6.13135L5.00635 18ZM7.25635 11.625H11.2563L9.25635 5.75L7.25635 11.625ZM31.1304 17.75C28.0137 18.0833 25.2637 18.25 22.8804 18.25C21.747 18.25 20.8387 17.9083 20.1554 17.225C19.472 16.5417 19.1304 15.6333 19.1304 14.5V8.75C19.1304 7.5 19.4804 6.525 20.1804 5.825C20.897 5.10833 21.8804 4.75 23.1304 4.75H31.1304V8.125H24.5054C23.8387 8.125 23.5054 8.45833 23.5054 9.125V14C23.5054 14.25 23.5887 14.4583 23.7554 14.625C23.922 14.7917 24.1304 14.875 24.3804 14.875C25.8804 14.875 28.1304 14.75 31.1304 14.5V17.75ZM44.8755 17.75C41.7588 18.0833 39.0088 18.25 36.6255 18.25C35.4922 18.25 34.5838 17.9083 33.9005 17.225C33.2172 16.5417 32.8755 15.6333 32.8755 14.5V8.75C32.8755 7.5 33.2255 6.525 33.9255 5.825C34.6422 5.10833 35.6255 4.75 36.8755 4.75H44.8755V8.125H38.2505C37.5838 8.125 37.2505 8.45833 37.2505 9.125V14C37.2505 14.25 37.3338 14.4583 37.5005 14.625C37.6672 14.7917 37.8755 14.875 38.1255 14.875C39.6255 14.875 41.8755 14.75 44.8755 14.5V17.75Z" fill="url(#paint1_linear_157_466)"/>
<path d="M5.00635 18H0.131348L6.75635 0.499999H11.7563L18.3813 18H13.5063L12.3813 14.875H6.13135L5.00635 18ZM7.25635 11.625H11.2563L9.25635 5.75L7.25635 11.625ZM31.1304 17.75C28.0137 18.0833 25.2637 18.25 22.8804 18.25C21.747 18.25 20.8387 17.9083 20.1554 17.225C19.472 16.5417 19.1304 15.6333 19.1304 14.5V8.75C19.1304 7.5 19.4804 6.525 20.1804 5.825C20.897 5.10833 21.8804 4.75 23.1304 4.75H31.1304V8.125H24.5054C23.8387 8.125 23.5054 8.45833 23.5054 9.125V14C23.5054 14.25 23.5887 14.4583 23.7554 14.625C23.922 14.7917 24.1304 14.875 24.3804 14.875C25.8804 14.875 28.1304 14.75 31.1304 14.5V17.75ZM44.8755 17.75C41.7588 18.0833 39.0088 18.25 36.6255 18.25C35.4922 18.25 34.5838 17.9083 33.9005 17.225C33.2172 16.5417 32.8755 15.6333 32.8755 14.5V8.75C32.8755 7.5 33.2255 6.525 33.9255 5.825C34.6422 5.10833 35.6255 4.75 36.8755 4.75H44.8755V8.125H38.2505C37.5838 8.125 37.2505 8.45833 37.2505 9.125V14C37.2505 14.25 37.3338 14.4583 37.5005 14.625C37.6672 14.7917 37.8755 14.875 38.1255 14.875C39.6255 14.875 41.8755 14.75 44.8755 14.5V17.75Z" fill="url(#paint2_linear_157_466)"/>
<path d="M5.00635 18H0.131348L6.75635 0.499999H11.7563L18.3813 18H13.5063L12.3813 14.875H6.13135L5.00635 18ZM7.25635 11.625H11.2563L9.25635 5.75L7.25635 11.625ZM31.1304 17.75C28.0137 18.0833 25.2637 18.25 22.8804 18.25C21.747 18.25 20.8387 17.9083 20.1554 17.225C19.472 16.5417 19.1304 15.6333 19.1304 14.5V8.75C19.1304 7.5 19.4804 6.525 20.1804 5.825C20.897 5.10833 21.8804 4.75 23.1304 4.75H31.1304V8.125H24.5054C23.8387 8.125 23.5054 8.45833 23.5054 9.125V14C23.5054 14.25 23.5887 14.4583 23.7554 14.625C23.922 14.7917 24.1304 14.875 24.3804 14.875C25.8804 14.875 28.1304 14.75 31.1304 14.5V17.75ZM44.8755 17.75C41.7588 18.0833 39.0088 18.25 36.6255 18.25C35.4922 18.25 34.5838 17.9083 33.9005 17.225C33.2172 16.5417 32.8755 15.6333 32.8755 14.5V8.75C32.8755 7.5 33.2255 6.525 33.9255 5.825C34.6422 5.10833 35.6255 4.75 36.8755 4.75H44.8755V8.125H38.2505C37.5838 8.125 37.2505 8.45833 37.2505 9.125V14C37.2505 14.25 37.3338 14.4583 37.5005 14.625C37.6672 14.7917 37.8755 14.875 38.1255 14.875C39.6255 14.875 41.8755 14.75 44.8755 14.5V17.75Z" fill="#AAC3FF"/>
<path d="M50.2456 18H45.3706L51.9956 0.499999H56.9956L63.6206 18H58.7456L57.6206 14.875H51.3706L50.2456 18ZM52.4956 11.625H56.4956L54.4956 5.75L52.4956 11.625ZM71.3696 18C70.253 18.1667 69.1863 18.25 68.1696 18.25C67.1696 18.25 66.328 17.9083 65.6446 17.225C64.9613 16.5417 64.6196 15.6333 64.6196 14.5V0.499999H68.9946V13.875C68.9946 14.125 69.078 14.3333 69.2446 14.5C69.4113 14.6667 69.6196 14.75 69.8696 14.75H71.3696V18ZM79.8657 18C78.7491 18.1667 77.6824 18.25 76.6657 18.25C75.6657 18.25 74.8241 17.9083 74.1407 17.225C73.4574 16.5417 73.1157 15.6333 73.1157 14.5V0.499999H77.4907V13.875C77.4907 14.125 77.5741 14.3333 77.7407 14.5C77.9074 14.6667 78.1157 14.75 78.3657 14.75H79.8657V18ZM84.1108 22.5C83.2275 22.5 82.1442 22.4167 80.8608 22.25V19H83.1108C83.7442 19 84.1525 18.825 84.3358 18.475C84.5358 18.125 84.5025 17.6333 84.2358 17L79.1108 4.75H83.7358L86.8608 13.25L89.4858 4.75H94.1108L89.1108 18.5C88.6275 19.8167 88.0025 20.8083 87.2358 21.475C86.4692 22.1583 85.4275 22.5 84.1108 22.5Z" fill="#AD9DF2"/>
<path d="M50.2456 18H45.3706L51.9956 0.499999H56.9956L63.6206 18H58.7456L57.6206 14.875H51.3706L50.2456 18ZM52.4956 11.625H56.4956L54.4956 5.75L52.4956 11.625ZM71.3696 18C70.253 18.1667 69.1863 18.25 68.1696 18.25C67.1696 18.25 66.328 17.9083 65.6446 17.225C64.9613 16.5417 64.6196 15.6333 64.6196 14.5V0.499999H68.9946V13.875C68.9946 14.125 69.078 14.3333 69.2446 14.5C69.4113 14.6667 69.6196 14.75 69.8696 14.75H71.3696V18ZM79.8657 18C78.7491 18.1667 77.6824 18.25 76.6657 18.25C75.6657 18.25 74.8241 17.9083 74.1407 17.225C73.4574 16.5417 73.1157 15.6333 73.1157 14.5V0.499999H77.4907V13.875C77.4907 14.125 77.5741 14.3333 77.7407 14.5C77.9074 14.6667 78.1157 14.75 78.3657 14.75H79.8657V18ZM84.1108 22.5C83.2275 22.5 82.1442 22.4167 80.8608 22.25V19H83.1108C83.7442 19 84.1525 18.825 84.3358 18.475C84.5358 18.125 84.5025 17.6333 84.2358 17L79.1108 4.75H83.7358L86.8608 13.25L89.4858 4.75H94.1108L89.1108 18.5C88.6275 19.8167 88.0025 20.8083 87.2358 21.475C86.4692 22.1583 85.4275 22.5 84.1108 22.5Z" fill="#AD9DF2"/>
<path d="M50.2456 18H45.3706L51.9956 0.499999H56.9956L63.6206 18H58.7456L57.6206 14.875H51.3706L50.2456 18ZM52.4956 11.625H56.4956L54.4956 5.75L52.4956 11.625ZM71.3696 18C70.253 18.1667 69.1863 18.25 68.1696 18.25C67.1696 18.25 66.328 17.9083 65.6446 17.225C64.9613 16.5417 64.6196 15.6333 64.6196 14.5V0.499999H68.9946V13.875C68.9946 14.125 69.078 14.3333 69.2446 14.5C69.4113 14.6667 69.6196 14.75 69.8696 14.75H71.3696V18ZM79.8657 18C78.7491 18.1667 77.6824 18.25 76.6657 18.25C75.6657 18.25 74.8241 17.9083 74.1407 17.225C73.4574 16.5417 73.1157 15.6333 73.1157 14.5V0.499999H77.4907V13.875C77.4907 14.125 77.5741 14.3333 77.7407 14.5C77.9074 14.6667 78.1157 14.75 78.3657 14.75H79.8657V18ZM84.1108 22.5C83.2275 22.5 82.1442 22.4167 80.8608 22.25V19H83.1108C83.7442 19 84.1525 18.825 84.3358 18.475C84.5358 18.125 84.5025 17.6333 84.2358 17L79.1108 4.75H83.7358L86.8608 13.25L89.4858 4.75H94.1108L89.1108 18.5C88.6275 19.8167 88.0025 20.8083 87.2358 21.475C86.4692 22.1583 85.4275 22.5 84.1108 22.5Z" fill="#AD9DF2"/>
<path d="M50.2456 18H45.3706L51.9956 0.499999H56.9956L63.6206 18H58.7456L57.6206 14.875H51.3706L50.2456 18ZM52.4956 11.625H56.4956L54.4956 5.75L52.4956 11.625ZM71.3696 18C70.253 18.1667 69.1863 18.25 68.1696 18.25C67.1696 18.25 66.328 17.9083 65.6446 17.225C64.9613 16.5417 64.6196 15.6333 64.6196 14.5V0.499999H68.9946V13.875C68.9946 14.125 69.078 14.3333 69.2446 14.5C69.4113 14.6667 69.6196 14.75 69.8696 14.75H71.3696V18ZM79.8657 18C78.7491 18.1667 77.6824 18.25 76.6657 18.25C75.6657 18.25 74.8241 17.9083 74.1407 17.225C73.4574 16.5417 73.1157 15.6333 73.1157 14.5V0.499999H77.4907V13.875C77.4907 14.125 77.5741 14.3333 77.7407 14.5C77.9074 14.6667 78.1157 14.75 78.3657 14.75H79.8657V18ZM84.1108 22.5C83.2275 22.5 82.1442 22.4167 80.8608 22.25V19H83.1108C83.7442 19 84.1525 18.825 84.3358 18.475C84.5358 18.125 84.5025 17.6333 84.2358 17L79.1108 4.75H83.7358L86.8608 13.25L89.4858 4.75H94.1108L89.1108 18.5C88.6275 19.8167 88.0025 20.8083 87.2358 21.475C86.4692 22.1583 85.4275 22.5 84.1108 22.5Z" fill="#867CE0"/>
<defs>
<linearGradient id="paint0_linear_157_466" x1="39.1359" y1="5.16514" x2="56.6372" y2="7.42817" gradientUnits="userSpaceOnUse">
<stop stop-color="#CBA2FF"/>
<stop offset="1" stop-color="#FFCEF1"/>
</linearGradient>
<linearGradient id="paint1_linear_157_466" x1="39.1359" y1="5.16514" x2="56.6372" y2="7.42817" gradientUnits="userSpaceOnUse">
<stop stop-color="#CBA2FF"/>
<stop offset="1" stop-color="#FFCEF1"/>
</linearGradient>
<linearGradient id="paint2_linear_157_466" x1="39.1359" y1="5.16514" x2="56.6372" y2="7.42817" gradientUnits="userSpaceOnUse">
<stop stop-color="#CBA2FF"/>
<stop offset="1" stop-color="#FFCEF1"/>
</linearGradient>
</defs>
</svg>
