<svg width="13" height="17" viewBox="0 0 13 17" fill="none" xmlns="http://www.w3.org/2000/svg">
<path d="M12.0028 8.21914C11.4853 7.54382 11.2502 6.95859 11.2502 5.96433V5.62627C11.2502 4.33063 10.9834 3.49585 10.4033 2.66106C9.50924 1.36462 8.00412 0.583252 6.53068 0.583252H6.46802C5.02556 0.583252 3.5676 1.32874 2.65805 2.57255C2.04629 3.42409 1.7485 4.29476 1.7485 5.62627V5.96433C1.7485 6.95859 1.52886 7.54382 0.995945 8.21914C0.603825 8.71667 0.478516 9.35611 0.478516 10.0482C0.478516 10.7411 0.681967 11.3972 1.09028 11.9306C1.6232 12.5701 2.37576 12.9783 3.14451 13.0493C4.25751 13.1912 5.37051 13.2446 6.4997 13.2446C7.62819 13.2446 8.74119 13.1553 9.85489 13.0493C10.6229 12.9783 11.3755 12.5701 11.9084 11.9306C12.316 11.3972 12.5202 10.7411 12.5202 10.0482C12.5202 9.35611 12.3949 8.71667 12.0028 8.21914Z" fill="#8A92A6"/>
<path opacity="0.4" d="M7.92177 14.2223C7.56767 14.1378 5.40995 14.1378 5.05585 14.2223C4.75313 14.3005 4.42578 14.4822 4.42578 14.8809C4.44338 15.2612 4.64261 15.5969 4.91857 15.8098L4.91787 15.8106C5.27479 16.1215 5.69366 16.3193 6.13224 16.3902C6.36596 16.4261 6.60391 16.4245 6.84608 16.3902C7.28396 16.3193 7.70283 16.1215 8.05975 15.8106L8.05905 15.8098C8.33501 15.5969 8.53424 15.2612 8.55184 14.8809C8.55184 14.4822 8.22449 14.3005 7.92177 14.2223" fill="#8A92A6"/>
</svg>
