<?xml version="1.0" encoding="utf-8"?>
<svg viewBox="1.033 35.744 900 205" xmlns="http://www.w3.org/2000/svg">
    <path
        d="M 1.033 35.744 L 22.533 39.244 C 44.033 42.744 87.033 49.744 129.833 63.944 C 172.733 78.044 215.333 99.444 258.233 113.744 C 301.033 128.044 344.033 135.444 386.833 126.044 C 429.733 116.744 472.333 90.744 515.233 88.744 C 558.033 86.744 601.033 108.744 643.833 113.444 C 686.733 118.044 729.333 105.444 772.233 99.944 C 815.033 94.444 858.033 96.044 879.533 96.944 L 901.033 97.744 L 901.033 240.744 L 879.533 240.744 C 858.033 240.744 815.033 240.744 772.233 240.744 C 729.333 240.744 686.733 240.744 643.833 240.744 C 601.033 240.744 558.033 240.744 515.233 240.744 C 472.333 240.744 429.733 240.744 386.833 240.744 C 344.033 240.744 301.033 240.744 258.233 240.744 C 215.333 240.744 172.733 240.744 129.833 240.744 C 87.033 240.744 44.033 240.744 22.533 240.744 L 1.033 240.744 L 1.033 35.744 Z"
        fill="#b8b8d3" stroke-linecap="round" stroke-linejoin="miter" />
</svg>