<svg width="20" height="21" viewBox="0 0 20 21" fill="none" xmlns="http://www.w3.org/2000/svg">
<g clip-path="url(#clip0_626_1044)">
<path d="M10.0003 18.8334C11.6485 18.8334 13.2597 18.3447 14.6301 17.429C16.0005 16.5133 17.0686 15.2118 17.6993 13.6891C18.3301 12.1664 18.4951 10.4908 18.1736 8.87433C17.852 7.25782 17.0583 5.77296 15.8929 4.60753C14.7274 3.44209 13.2426 2.64842 11.6261 2.32687C10.0096 2.00533 8.33399 2.17036 6.81129 2.80109C5.28858 3.43182 3.98709 4.49992 3.07141 5.87033C2.15573 7.24074 1.66699 8.85192 1.66699 10.5001C1.66699 12.7102 2.54497 14.8298 4.10777 16.3927C5.67058 17.9554 7.79019 18.8334 10.0003 18.8334ZM6.84199 9.49175L9.16699 11.8251L13.5753 7.40842L14.7587 8.59175L9.16699 14.1751L5.65866 10.6751L6.84199 9.49175Z" fill="white"/>
</g>
<defs>
<clipPath id="clip0_626_1044">
<rect width="20" height="20" fill="white" transform="translate(0 0.5)"/>
</clipPath>
</defs>
</svg>
