<svg preserveAspectRatio="none" width="20" height="20" viewBox="0 0 20 20" fill="none" xmlns="http://www.w3.org/2000/svg">
<path d="M10 18.3333C11.6482 18.3333 13.2593 17.8446 14.6298 16.9289C16.0002 16.0132 17.0682 14.7118 17.699 13.189C18.3297 11.6663 18.4947 9.99075 18.1732 8.37425C17.8517 6.75774 17.058 5.27288 15.8926 4.10745C14.7271 2.94201 13.2423 2.14833 11.6258 1.82679C10.0093 1.50525 8.33367 1.67028 6.81097 2.30101C5.28825 2.93174 3.98677 3.99984 3.07108 5.37025C2.15541 6.74066 1.66667 8.35183 1.66667 10C1.66667 12.2102 2.54464 14.3297 4.10744 15.8926C5.67025 17.4553 7.78987 18.3333 10 18.3333ZM6.84167 8.99167L9.16667 11.325L13.575 6.90833L14.7583 8.09167L9.16667 13.675L5.65833 10.175L6.84167 8.99167Z" fill="white"/>
</svg>
