<svg width="129" height="41" viewBox="0 0 129 41" fill="none" xmlns="http://www.w3.org/2000/svg">
<path d="M27 4H6C2.68629 4 0 6.68629 0 10V31C0 34.3137 2.68629 37 6 37H27C30.3137 37 33 34.3137 33 31V10C33 6.68629 30.3137 4 27 4Z" fill="url(#paint0_linear_2776_7252)"/>
<mask id="mask0_2776_7252" style="mask-type:luminance" maskUnits="userSpaceOnUse" x="6" y="10" width="21" height="21">
<path d="M21 10H12C8.68629 10 6 12.6863 6 16V25C6 28.3137 8.68629 31 12 31H21C24.3137 31 27 28.3137 27 25V16C27 12.6863 24.3137 10 21 10Z" fill="white"/>
</mask>
<g mask="url(#mask0_2776_7252)">
<path d="M14.4892 12.0488C15.2304 11.0688 16.8778 10.9293 17.6885 11.8467L25.9326 21.7765C26.1545 22.0275 26.5336 22.4206 26.5711 22.7591V27.4359C26.6774 28.3963 25.5483 29.0313 24.9037 28.3342L17.4013 18.6962C16.5805 17.8085 15.7506 17.7241 15.0225 18.6962L10.1006 24.8895L7.84602 27.9946C7.31595 28.842 6.04917 28.446 6.05865 27.4359L6.10251 22.7591C6.10584 22.4025 6.22272 22.057 6.43491 21.7765L14.4892 12.0488Z" fill="url(#paint1_radial_2776_7252)"/>
<g style="mix-blend-mode:soft-light">
<g style="mix-blend-mode:hue">
<path d="M14.7792 14.5113C15.5112 13.5244 16.626 13.4373 17.4453 14.3471L24.0574 22.521C24.3269 22.8202 24.4179 23.1846 24.4179 23.5944V26.4145C24.4179 27.313 23.012 27.4186 22.399 26.7844L17.2812 20.1301C16.4484 19.2686 15.4921 19.3236 14.7792 20.2942L12.2363 23.5944L9.81637 26.7844C9.26845 27.5874 7.75195 27.3987 7.75195 26.4145V23.5067C7.75195 23.1501 7.86559 22.8035 8.07514 22.521L14.7792 14.5113Z" fill="#5B1D78" fill-opacity="0.56"/>
</g>
</g>
<path d="M15.2279 20.2156C15.5881 19.7367 16.415 19.7026 16.8275 20.1336L22.1384 26.9485C22.7481 27.5854 21.9297 28.5796 21.0649 28.5796H10.8119C10.002 28.5796 9.54714 27.6114 10.0457 26.9485L15.2279 20.2156Z" fill="url(#paint2_linear_2776_7252)"/>
</g>
<path d="M39.384 26.864L40.128 26.408L45.744 12.8L49.824 12.44L54.624 25.4C54.784 25.816 54.896 26.088 54.96 26.216C55.024 26.344 55.144 26.52 55.32 26.744L55.752 27.296L55.608 29H48.864L48.624 26.72L50.328 26.288L49.56 23.864L44.688 23.936L44.16 25.448C44.112 25.592 44.088 25.712 44.088 25.808C44.088 25.92 44.104 26.008 44.136 26.072C44.184 26.12 44.256 26.16 44.352 26.192L46.008 26.888L45.768 29H39.48L39.384 26.864ZM47.232 16.544L45.648 21.152L48.744 21.296L47.232 16.544ZM62.4191 29.312C60.5631 29.312 59.1231 28.744 58.0991 27.608C57.0751 26.456 56.5631 24.872 56.5631 22.856C56.5631 20.76 57.1071 19.128 58.1951 17.96C59.2991 16.792 60.8031 16.208 62.7071 16.208C64.1471 16.208 65.6911 16.536 67.3391 17.192C67.3071 17.656 67.2351 18.272 67.1231 19.04C67.0111 19.792 66.8911 20.488 66.7631 21.128L65.1551 21.272L63.6671 19.376C63.2671 19.296 62.8191 19.256 62.3231 19.256C61.9231 19.256 61.5551 19.28 61.2191 19.328C60.8511 20.032 60.6671 21.024 60.6671 22.304C60.6671 23.616 60.8991 24.592 61.3631 25.232C61.8271 25.856 62.5311 26.168 63.4751 26.168C63.9231 26.168 64.4671 26.104 65.1071 25.976C65.7471 25.832 66.4031 25.632 67.0751 25.376L67.6511 27.776C67.0111 28.224 66.2111 28.592 65.2511 28.88C64.3071 29.168 63.3631 29.312 62.4191 29.312ZM74.6301 29.312C72.7741 29.312 71.3341 28.744 70.3101 27.608C69.2861 26.456 68.7741 24.872 68.7741 22.856C68.7741 20.76 69.3181 19.128 70.4061 17.96C71.5101 16.792 73.0141 16.208 74.9181 16.208C76.3581 16.208 77.9021 16.536 79.5501 17.192C79.5181 17.656 79.4461 18.272 79.3341 19.04C79.2221 19.792 79.1021 20.488 78.9741 21.128L77.3661 21.272L75.8781 19.376C75.4781 19.296 75.0301 19.256 74.5341 19.256C74.1341 19.256 73.7661 19.28 73.4301 19.328C73.0621 20.032 72.8781 21.024 72.8781 22.304C72.8781 23.616 73.1101 24.592 73.5741 25.232C74.0381 25.856 74.7421 26.168 75.6861 26.168C76.1341 26.168 76.6781 26.104 77.3181 25.976C77.9581 25.832 78.6141 25.632 79.2861 25.376L79.8621 27.776C79.2221 28.224 78.4221 28.592 77.4621 28.88C76.5181 29.168 75.5741 29.312 74.6301 29.312ZM80.8918 26.864L81.6358 26.408L87.2518 12.8L91.3318 12.44L96.1318 25.4C96.2918 25.816 96.4038 26.088 96.4678 26.216C96.5318 26.344 96.6518 26.52 96.8278 26.744L97.2598 27.296L97.1158 29H90.3718L90.1318 26.72L91.8358 26.288L91.0678 23.864L86.1958 23.936L85.6678 25.448C85.6198 25.592 85.5958 25.712 85.5958 25.808C85.5958 25.92 85.6118 26.008 85.6438 26.072C85.6918 26.12 85.7638 26.16 85.8598 26.192L87.5158 26.888L87.2758 29H80.9878L80.8918 26.864ZM88.7398 16.544L87.1558 21.152L90.2518 21.296L88.7398 16.544ZM98.1938 26.792L99.8738 26.288V14.792C99.8738 14.44 99.8418 14.216 99.7778 14.12C99.7298 14.008 99.5938 13.888 99.3698 13.76L98.3138 13.208L98.4338 11.384C98.7538 11.32 99.0018 11.28 99.1777 11.264C101.29 10.88 102.762 10.672 103.594 10.64C103.754 11.008 103.858 11.424 103.906 11.888V25.496C103.906 25.832 103.93 26.056 103.978 26.168C104.026 26.28 104.162 26.4 104.386 26.528L105.562 27.2L105.466 29H98.2658L98.1938 26.792ZM106.397 26.792L108.077 26.288V14.792C108.077 14.44 108.045 14.216 107.981 14.12C107.933 14.008 107.797 13.888 107.573 13.76L106.517 13.208L106.637 11.384C106.957 11.32 107.205 11.28 107.381 11.264C109.493 10.88 110.965 10.672 111.797 10.64C111.957 11.008 112.061 11.424 112.109 11.888V25.496C112.109 25.832 112.133 26.056 112.181 26.168C112.229 26.28 112.365 26.4 112.589 26.528L113.765 27.2L113.669 29H106.469L106.397 26.792ZM118.765 34.496C117.613 33.728 116.589 32.736 115.693 31.52L118.357 28.904L114.877 19.736C114.701 19.304 114.581 19.024 114.517 18.896C114.453 18.768 114.333 18.592 114.157 18.368L113.749 17.84L113.869 16.448H120.013L120.253 18.488L118.861 18.824L120.829 24.848L123.037 19.328C123.069 19.232 123.085 19.16 123.085 19.112C123.085 18.968 123.021 18.872 122.893 18.824L121.765 18.344L121.981 16.448H126.541L126.757 18.392L123.685 25.088C122.581 27.504 121.669 29.4 120.949 30.776C120.229 32.152 119.501 33.392 118.765 34.496Z" fill="url(#paint3_linear_2776_7252)"/>
<defs>
<linearGradient id="paint0_linear_2776_7252" x1="16.5" y1="4" x2="16.5" y2="37" gradientUnits="userSpaceOnUse">
<stop stop-color="#9167E1" stop-opacity="0.5"/>
<stop offset="1" stop-color="#3E8DE7" stop-opacity="0.3"/>
</linearGradient>
<radialGradient id="paint1_radial_2776_7252" cx="0" cy="0" r="1" gradientUnits="userSpaceOnUse" gradientTransform="translate(16.1713 13.431) rotate(90.656) scale(15.6367 16.4957)">
<stop stop-color="#965EE6" stop-opacity="0.8"/>
<stop offset="1" stop-color="#2D99E8"/>
</radialGradient>
<linearGradient id="paint2_linear_2776_7252" x1="16.1106" y1="20.0476" x2="16.1106" y2="28.5789" gradientUnits="userSpaceOnUse">
<stop stop-color="#8D67E5"/>
<stop offset="1" stop-color="#2E97E8"/>
</linearGradient>
<linearGradient id="paint3_linear_2776_7252" x1="84.2036" y1="-7.67765e-08" x2="82.9767" y2="40.9694" gradientUnits="userSpaceOnUse">
<stop stop-color="#8250C9"/>
<stop offset="1" stop-color="#5C77DE"/>
</linearGradient>
</defs>
</svg>
